<?xml version="1.0" encoding="UTF-8" standalone="no"?>
<svg
   class="ionicon"
   viewBox="0 0 512 512"
   version="1.1"
   id="svg1"
   sodipodi:docname="sunny-outline.svg"
   xml:space="preserve"
   inkscape:version="1.4 (e7c3feb1, 2024-10-09)"
   xmlns:inkscape="http://www.inkscape.org/namespaces/inkscape"
   xmlns:sodipodi="http://sodipodi.sourceforge.net/DTD/sodipodi-0.dtd"
   xmlns="http://www.w3.org/2000/svg"
   xmlns:svg="http://www.w3.org/2000/svg"><defs
     id="defs1" /><sodipodi:namedview
     id="namedview1"
     pagecolor="#ffffff"
     bordercolor="#000000"
     borderopacity="0.25"
     inkscape:showpageshadow="2"
     inkscape:pageopacity="0.0"
     inkscape:pagecheckerboard="0"
     inkscape:deskcolor="#d1d1d1"
     inkscape:zoom="1"
     inkscape:cx="218.5"
     inkscape:cy="283"
     inkscape:window-width="1352"
     inkscape:window-height="805"
     inkscape:window-x="0"
     inkscape:window-y="25"
     inkscape:window-maximized="0"
     inkscape:current-layer="svg1" /><path
     fill="none"
     stroke="currentColor"
     stroke-linecap="round"
     stroke-miterlimit="10"
     stroke-width="32"
     d="m 288,16 v 48 m 0,320 v 48 M 435.08,76.92 401.14,110.86 M 174.86,337.14 140.92,371.08 M 496,224 h -48 m -320,0 H 80 M 435.08,371.08 401.14,337.14 M 174.86,110.86 140.92,76.92"
     id="path1-04"
     style="display:none"
     transform="translate(-32,32)" /><g
     id="g3"
     transform="matrix(0.7143,0,0,0.7143,-86.85952,233.13792)"
     style="display:inline;stroke-width:22.39955201;stroke-dasharray:none"
     sodipodi:insensitive="true"><circle
       cx="323.20001"
       cy="188.8"
       r="56"
       fill="none"
       stroke="currentColor"
       stroke-linecap="round"
       stroke-miterlimit="10"
       stroke-width="22.4"
       id="circle1-1"
       style="display:inline;stroke-width:22.39955201;stroke-dasharray:none" /><path
       fill="none"
       stroke="currentColor"
       stroke-linecap="round"
       stroke-miterlimit="10"
       stroke-width="22.4"
       d="m 355.2,11.2 v 33.6 m 0,224 v 33.6 M 458.156,53.844 434.398,77.602 M 276.002,235.998 252.244,259.756 M 500.8,156.8 h -33.6 m -224,0 H 209.6 M 458.156,259.756 434.398,235.998 M 276.002,77.602 252.244,53.844"
       id="path1-4"
       style="display:inline;stroke-width:22.39955201;stroke-dasharray:none"
       transform="translate(-32,32)"
       inkscape:label="rays"
       sodipodi:insensitive="true" /></g><path
     d="m 321.01801,83.66862 c 0,-15.21266 2.24066,-30.60915 7.94914,-43.72026 -37.97204,16.52924 -63.59311,55.30613 -63.59311,99.36423 0,59.26579 48.04757,107.31336 107.31337,107.31336 44.0581,0 82.83499,-25.62107 99.36423,-63.5931 -13.11111,5.70847 -28.5076,7.94913 -43.72026,7.94913 -59.2658,0 -107.31337,-48.04757 -107.31337,-107.31336 z"
     fill="none"
     stroke="currentColor"
     stroke-linecap="round"
     stroke-linejoin="round"
     stroke-width="15.8982"
     id="path1-8"
     inkscape:label="moon"
     style="display:inline;stroke-width:16;stroke-dasharray:none"
     sodipodi:insensitive="true" /><path
     fill="none"
     stroke="currentColor"
     stroke-linecap="round"
     stroke-miterlimit="10"
     stroke-width="32"
     d="M 108.92,108.92 403.08,403.08"
     id="path1-3"
     inkscape:label="cut"
     sodipodi:nodetypes="cc"
     style="display:inline;stroke-width:16;stroke-dasharray:none"
     sodipodi:insensitive="true" /></svg>
